<?xml version="1.0" encoding="UTF-8"?>
<svg xmlns="http://www.w3.org/2000/svg" xmlns:xlink="http://www.w3.org/1999/xlink" width="60pt" height="84pt" viewBox="0 0 60 84" version="1.1">
<g id="surface1">
<path style=" stroke:none;fill-rule:nonzero;fill:rgb(14.901961%,30.196078%,89.411765%);fill-opacity:1;" d="M 29.964844 83.789062 L 5.546875 77.058594 L 0.105469 16.464844 L 59.894531 16.464844 L 54.449219 77.046875 Z M 29.964844 83.789062 "/>
<path style=" stroke:none;fill-rule:nonzero;fill:rgb(16.078431%,39.607843%,94.509804%);fill-opacity:1;" d="M 49.785156 73.191406 L 54.441406 21.421875 L 30 21.421875 L 30 78.636719 Z M 49.785156 73.191406 "/>
<path style=" stroke:none;fill-rule:nonzero;fill:rgb(92.156863%,92.156863%,92.156863%);fill-opacity:1;" d="M 12.578125 43.894531 L 13.25 51.324219 L 30 51.324219 L 30 43.894531 Z M 12.578125 43.894531 "/>
<path style=" stroke:none;fill-rule:nonzero;fill:rgb(92.156863%,92.156863%,92.156863%);fill-opacity:1;" d="M 11.230469 28.851562 L 11.910156 36.285156 L 30 36.285156 L 30 28.851562 Z M 11.230469 28.851562 "/>
<path style=" stroke:none;fill-rule:nonzero;fill:rgb(92.156863%,92.156863%,92.156863%);fill-opacity:1;" d="M 30 63.191406 L 29.96875 63.203125 L 21.628906 60.96875 L 21.097656 55.039062 L 13.582031 55.039062 L 14.632812 66.707031 L 29.964844 70.933594 L 30 70.925781 Z M 30 63.191406 "/>
<path style=" stroke:none;fill-rule:nonzero;fill:rgb(0%,0%,0%);fill-opacity:1;" d="M 14.175781 0 L 23.242188 0 L 23.242188 3.765625 L 17.96875 3.765625 L 17.96875 7.527344 L 23.242188 7.527344 L 23.242188 11.292969 L 14.175781 11.292969 Z M 14.175781 0 "/>
<path style=" stroke:none;fill-rule:nonzero;fill:rgb(0%,0%,0%);fill-opacity:1;" d="M 25.054688 0 L 34.121094 0 L 34.121094 3.273438 L 28.847656 3.273438 L 28.847656 3.925781 L 34.121094 3.925781 L 34.121094 11.457031 L 25.054688 11.457031 L 25.054688 8.019531 L 30.328125 8.019531 L 30.328125 7.363281 L 25.054688 7.363281 Z M 25.054688 0 "/>
<path style=" stroke:none;fill-rule:nonzero;fill:rgb(0%,0%,0%);fill-opacity:1;" d="M 35.933594 0 L 45 0 L 45 3.273438 L 39.726562 3.273438 L 39.726562 3.925781 L 45 3.925781 L 45 11.457031 L 35.933594 11.457031 L 35.933594 8.019531 L 41.207031 8.019531 L 41.207031 7.363281 L 35.933594 7.363281 Z M 35.933594 0 "/>
<path style=" stroke:none;fill-rule:nonzero;fill:rgb(100%,100%,100%);fill-opacity:1;" d="M 47.375 43.894531 L 48.726562 28.851562 L 29.972656 28.851562 L 29.972656 36.285156 L 40.523438 36.285156 L 39.839844 43.894531 L 29.972656 43.894531 L 29.972656 51.324219 L 39.191406 51.324219 L 38.324219 60.960938 L 29.972656 63.199219 L 29.972656 70.929688 L 45.320312 66.707031 L 45.433594 65.453125 L 47.191406 45.890625 Z M 47.375 43.894531 "/>
</g>
</svg>
