<?xml version="1.0" encoding="UTF-8"?>
<svg xmlns="http://www.w3.org/2000/svg" xmlns:xlink="http://www.w3.org/1999/xlink" width="60pt" height="60pt" viewBox="0 0 60 60" version="1.1">
<g id="surface1">
<path style=" stroke:none;fill-rule:nonzero;fill:rgb(87.058824%,29.803922%,21.176471%);fill-opacity:1;" d="M 58.867188 27.328125 L 32.671875 1.132812 C 31.164062 -0.378906 28.71875 -0.378906 27.207031 1.132812 L 21.769531 6.570312 L 28.667969 13.472656 C 30.273438 12.929688 32.109375 13.292969 33.390625 14.570312 C 34.671875 15.859375 35.035156 17.714844 34.480469 19.320312 L 41.128906 25.972656 C 42.738281 25.417969 44.59375 25.777344 45.878906 27.0625 C 47.675781 28.859375 47.675781 31.769531 45.878906 33.566406 C 44.082031 35.363281 41.175781 35.363281 39.375 33.566406 C 38.027344 32.214844 37.691406 30.230469 38.375 28.566406 L 32.175781 22.363281 L 32.171875 38.683594 C 32.609375 38.902344 33.023438 39.191406 33.390625 39.554688 C 35.183594 41.347656 35.183594 44.257812 33.390625 46.058594 C 31.59375 47.851562 28.679688 47.851562 26.886719 46.058594 C 25.089844 44.257812 25.089844 41.347656 26.886719 39.554688 C 27.332031 39.109375 27.84375 38.777344 28.390625 38.550781 L 28.390625 22.078125 C 27.84375 21.851562 27.332031 21.519531 26.886719 21.074219 C 25.527344 19.714844 25.199219 17.71875 25.898438 16.046875 L 19.09375 9.246094 L 1.132812 27.207031 C -0.378906 28.714844 -0.378906 31.164062 1.132812 32.671875 L 27.328125 58.867188 C 28.835938 60.375 31.285156 60.375 32.792969 58.867188 L 58.867188 32.792969 C 60.378906 31.285156 60.378906 28.835938 58.867188 27.328125 "/>
</g>
</svg>
