<?xml version="1.0" encoding="UTF-8"?>
<svg xmlns="http://www.w3.org/2000/svg" xmlns:xlink="http://www.w3.org/1999/xlink" width="60pt" height="59pt" viewBox="0 0 60 59" version="1.1">
<g id="surface1">
<path style=" stroke:none;fill-rule:nonzero;fill:rgb(8.627451%,8.627451%,7.843137%);fill-opacity:1;" d="M 30 0 C 13.433594 0 0 13.523438 0 30.207031 C 0 43.554688 8.597656 54.878906 20.515625 58.871094 C 22.015625 59.152344 22.566406 58.21875 22.566406 57.417969 C 22.566406 56.699219 22.539062 54.320312 22.523438 51.796875 C 14.179688 53.621094 12.417969 48.230469 12.417969 48.230469 C 11.054688 44.738281 9.085938 43.8125 9.085938 43.8125 C 6.363281 41.9375 9.292969 41.976562 9.292969 41.976562 C 12.304688 42.1875 13.890625 45.085938 13.890625 45.085938 C 16.566406 49.707031 20.910156 48.371094 22.621094 47.597656 C 22.890625 45.648438 23.667969 44.3125 24.527344 43.558594 C 17.863281 42.796875 10.855469 40.207031 10.855469 28.628906 C 10.855469 25.332031 12.03125 22.636719 13.949219 20.523438 C 13.636719 19.761719 12.609375 16.6875 14.238281 12.527344 C 14.238281 12.527344 16.757812 11.714844 22.492188 15.625 C 24.882812 14.953125 27.449219 14.621094 30 14.609375 C 32.550781 14.621094 35.117188 14.953125 37.515625 15.625 C 43.242188 11.714844 45.757812 12.527344 45.757812 12.527344 C 47.390625 16.6875 46.363281 19.761719 46.050781 20.523438 C 47.976562 22.636719 49.140625 25.332031 49.140625 28.628906 C 49.140625 40.234375 42.121094 42.789062 35.441406 43.535156 C 36.515625 44.472656 37.476562 46.3125 37.476562 49.128906 C 37.476562 53.171875 37.441406 56.425781 37.441406 57.417969 C 37.441406 58.222656 37.980469 59.164062 39.5 58.867188 C 51.414062 54.871094 60 43.550781 60 30.207031 C 60 13.523438 46.566406 0 30 0 Z M 11.234375 43.03125 C 11.171875 43.183594 10.933594 43.226562 10.722656 43.125 C 10.503906 43.027344 10.382812 42.820312 10.453125 42.671875 C 10.515625 42.515625 10.753906 42.472656 10.96875 42.578125 C 11.1875 42.675781 11.3125 42.882812 11.234375 43.03125 Z M 12.710938 44.359375 C 12.570312 44.492188 12.289062 44.429688 12.097656 44.21875 C 11.902344 44.007812 11.867188 43.726562 12.011719 43.589844 C 12.160156 43.457031 12.429688 43.519531 12.625 43.730469 C 12.824219 43.945312 12.859375 44.222656 12.710938 44.359375 Z M 13.722656 46.054688 C 13.539062 46.183594 13.238281 46.0625 13.054688 45.792969 C 12.871094 45.523438 12.871094 45.203125 13.058594 45.074219 C 13.246094 44.945312 13.539062 45.0625 13.730469 45.328125 C 13.910156 45.601562 13.910156 45.921875 13.722656 46.054688 Z M 15.4375 48.019531 C 15.273438 48.203125 14.921875 48.152344 14.664062 47.902344 C 14.402344 47.660156 14.328125 47.3125 14.496094 47.132812 C 14.660156 46.949219 15.011719 47 15.273438 47.246094 C 15.53125 47.492188 15.613281 47.839844 15.4375 48.019531 Z M 17.648438 48.683594 C 17.578125 48.917969 17.238281 49.027344 16.898438 48.925781 C 16.558594 48.824219 16.339844 48.546875 16.40625 48.304688 C 16.476562 48.066406 16.816406 47.957031 17.15625 48.0625 C 17.496094 48.167969 17.71875 48.441406 17.648438 48.683594 Z M 20.167969 48.964844 C 20.175781 49.214844 19.886719 49.417969 19.53125 49.425781 C 19.171875 49.433594 18.882812 49.230469 18.878906 48.984375 C 18.878906 48.734375 19.160156 48.527344 19.519531 48.523438 C 19.875 48.515625 20.167969 48.714844 20.167969 48.964844 Z M 22.640625 48.867188 C 22.683594 49.113281 22.4375 49.359375 22.082031 49.425781 C 21.734375 49.492188 21.410156 49.339844 21.367188 49.101562 C 21.324219 48.851562 21.574219 48.601562 21.921875 48.539062 C 22.277344 48.476562 22.597656 48.621094 22.640625 48.867188 Z M 22.640625 48.867188 "/>
</g>
</svg>
