<?xml version="1.0" encoding="UTF-8"?>
<svg xmlns="http://www.w3.org/2000/svg" xmlns:xlink="http://www.w3.org/1999/xlink" width="60pt" height="83pt" viewBox="0 0 60 83" version="1.1">
<g id="surface1">
<path style=" stroke:none;fill-rule:nonzero;fill:rgb(89.411765%,30.196078%,14.901961%);fill-opacity:1;" d="M 59.421875 16.179688 L 54.019531 75.699219 L 29.726562 82.320312 L 5.5 75.707031 L 0.101562 16.179688 Z M 59.421875 16.179688 "/>
<path style=" stroke:none;fill-rule:nonzero;fill:rgb(94.509804%,39.607843%,16.078431%);fill-opacity:1;" d="M 29.761719 77.261719 L 49.390625 71.910156 L 54.007812 21.046875 L 29.761719 21.046875 Z M 29.761719 77.261719 "/>
<path style=" stroke:none;fill-rule:nonzero;fill:rgb(92.156863%,92.156863%,92.156863%);fill-opacity:1;" d="M 19.257812 35.644531 L 29.761719 35.644531 L 29.761719 28.347656 L 11.140625 28.347656 L 11.320312 30.304688 L 13.144531 50.425781 L 29.761719 50.425781 L 29.761719 43.125 L 19.9375 43.125 Z M 19.257812 35.644531 "/>
<path style=" stroke:none;fill-rule:nonzero;fill:rgb(92.156863%,92.156863%,92.156863%);fill-opacity:1;" d="M 20.929688 54.078125 L 13.476562 54.078125 L 14.519531 65.539062 L 29.730469 69.691406 L 29.761719 69.683594 L 29.761719 62.085938 L 29.730469 62.09375 L 21.460938 59.898438 Z M 20.929688 54.078125 "/>
<path style=" stroke:none;fill-rule:nonzero;fill:rgb(0%,0%,0%);fill-opacity:1;" d="M 5.621094 0 L 9.398438 0 L 9.398438 3.664062 L 12.847656 3.664062 L 12.847656 0 L 16.621094 0 L 16.621094 11.097656 L 12.847656 11.097656 L 12.847656 7.382812 L 9.398438 7.382812 L 9.398438 11.097656 L 5.621094 11.097656 Z M 5.621094 0 "/>
<path style=" stroke:none;fill-rule:nonzero;fill:rgb(0%,0%,0%);fill-opacity:1;" d="M 21.585938 3.679688 L 18.261719 3.679688 L 18.261719 0 L 28.683594 0 L 28.683594 3.679688 L 25.359375 3.679688 L 25.359375 11.097656 L 21.585938 11.097656 Z M 21.585938 3.679688 "/>
<path style=" stroke:none;fill-rule:nonzero;fill:rgb(0%,0%,0%);fill-opacity:1;" d="M 30.332031 0 L 34.273438 0 L 36.691406 3.902344 L 39.109375 0 L 43.046875 0 L 43.046875 11.097656 L 39.285156 11.097656 L 39.285156 5.601562 L 36.691406 9.546875 L 36.625 9.546875 L 34.027344 5.601562 L 34.027344 11.097656 L 30.332031 11.097656 Z M 30.332031 0 "/>
<path style=" stroke:none;fill-rule:nonzero;fill:rgb(0%,0%,0%);fill-opacity:1;" d="M 44.921875 0 L 48.699219 0 L 48.699219 7.433594 L 54.003906 7.433594 L 54.003906 11.097656 L 44.921875 11.097656 Z M 44.921875 0 "/>
<path style=" stroke:none;fill-rule:nonzero;fill:rgb(100%,100%,100%);fill-opacity:1;" d="M 29.734375 50.425781 L 38.882812 50.425781 L 38.015625 59.894531 L 29.734375 62.09375 L 29.734375 69.6875 L 44.960938 65.539062 L 45.070312 64.304688 L 46.816406 45.085938 L 46.996094 43.125 L 29.734375 43.125 Z M 29.734375 50.425781 "/>
<path style=" stroke:none;fill-rule:nonzero;fill:rgb(100%,100%,100%);fill-opacity:1;" d="M 29.734375 35.632812 L 29.734375 35.644531 L 47.675781 35.644531 L 47.824219 34.007812 L 48.160156 30.304688 L 48.339844 28.347656 L 29.734375 28.347656 Z M 29.734375 35.632812 "/>
</g>
</svg>
