<?xml version="1.0" encoding="UTF-8"?>
<svg xmlns="http://www.w3.org/2000/svg" xmlns:xlink="http://www.w3.org/1999/xlink" width="60pt" height="60pt" viewBox="0 0 60 60" version="1.1">
<g id="surface1">
<rect x="0" y="0" width="60" height="60" style="fill:rgb(96.862745%,87.45098%,11.764706%);fill-opacity:1;stroke:none;"/>
<path style=" stroke:none;fill-rule:nonzero;fill:rgb(0%,0%,0%);fill-opacity:1;" d="M 15.777344 50.140625 L 20.367188 47.363281 C 21.253906 48.933594 22.058594 50.261719 23.992188 50.261719 C 25.84375 50.261719 27.011719 49.535156 27.011719 46.71875 L 27.011719 27.546875 L 32.652344 27.546875 L 32.652344 46.796875 C 32.652344 52.636719 29.226562 55.296875 24.234375 55.296875 C 19.722656 55.296875 17.105469 52.960938 15.777344 50.140625 "/>
<path style=" stroke:none;fill-rule:nonzero;fill:rgb(0%,0%,0%);fill-opacity:1;" d="M 35.714844 49.535156 L 40.304688 46.878906 C 41.515625 48.851562 43.085938 50.300781 45.863281 50.300781 C 48.199219 50.300781 49.691406 49.132812 49.691406 47.523438 C 49.691406 45.589844 48.160156 44.90625 45.582031 43.777344 L 44.171875 43.171875 C 40.105469 41.441406 37.40625 39.265625 37.40625 34.675781 C 37.40625 30.445312 40.628906 27.222656 45.664062 27.222656 C 49.246094 27.222656 51.824219 28.472656 53.675781 31.734375 L 49.285156 34.554688 C 48.320312 32.820312 47.273438 32.136719 45.664062 32.136719 C 44.011719 32.136719 42.964844 33.183594 42.964844 34.554688 C 42.964844 36.246094 44.011719 36.929688 46.425781 37.976562 L 47.835938 38.582031 C 52.628906 40.636719 55.328125 42.730469 55.328125 47.441406 C 55.328125 52.515625 51.339844 55.296875 45.984375 55.296875 C 40.75 55.296875 37.367188 52.796875 35.714844 49.535156 "/>
</g>
</svg>
