<?xml version="1.0" encoding="UTF-8"?>
<svg xmlns="http://www.w3.org/2000/svg" xmlns:xlink="http://www.w3.org/1999/xlink" width="61pt" height="14pt" viewBox="0 0 61 14" version="1.1">
<g id="surface1">
<path style=" stroke:none;fill-rule:evenodd;fill:rgb(10.196078%,9.803922%,9.411765%);fill-opacity:1;" d="M 58.34375 1.042969 L 60.898438 1.058594 C 60.898438 1.058594 56.152344 7.570312 55.765625 8.101562 C 55.640625 8.273438 55.449219 8.457031 55.351562 8.6875 C 55.105469 9.265625 54.855469 10.535156 54.855469 10.535156 L 52.519531 10.546875 C 52.519531 10.546875 52.882812 9.222656 52.867188 8.519531 C 52.855469 7.90625 52.546875 7.292969 52.371094 6.675781 C 52.195312 6.050781 51.957031 4.832031 51.957031 4.832031 L 54.359375 4.832031 L 54.6875 6.171875 L 58.34375 1.042969 "/>
<path style=" stroke:none;fill-rule:evenodd;fill:rgb(10.196078%,9.803922%,9.411765%);fill-opacity:1;" d="M 53.511719 2.417969 C 53.984375 2.703125 54.273438 4.292969 54.273438 4.292969 C 54.273438 4.292969 51.808594 4.328125 50.46875 4.328125 L 49.308594 4.328125 L 47.902344 10.535156 L 45.75 10.535156 C 45.75 10.535156 47.089844 3.789062 47.40625 2.566406 C 47.507812 2.171875 48.105469 2.238281 49.117188 2.238281 L 50.734375 2.238281 C 51.78125 2.238281 53 2.105469 53.511719 2.417969 "/>
<path style=" stroke:none;fill-rule:evenodd;fill:rgb(10.196078%,9.803922%,9.411765%);fill-opacity:1;" d="M 43.492188 5.4375 C 43.492188 5.4375 43.558594 5.039062 43.265625 4.578125 C 43.015625 4.1875 42.78125 4.09375 42.121094 4.074219 C 40.25 4.015625 40.285156 5.417969 40.285156 5.417969 Z M 45.523438 3.832031 C 45.796875 4.832031 45.273438 7.1875 45.273438 7.1875 C 45.273438 7.1875 42.546875 7.140625 41.050781 7.1875 C 40.585938 7.199219 40.03125 7.132812 39.894531 7.351562 C 39.699219 7.660156 39.964844 8.132812 40.1875 8.332031 C 40.449219 8.5625 40.953125 8.585938 41.132812 8.609375 C 42.347656 8.765625 44.886719 8.652344 44.886719 8.652344 L 44.445312 10.625 C 44.445312 10.625 40.859375 10.804688 39.066406 10.371094 C 38.710938 10.285156 38.378906 10.113281 38.15625 9.867188 C 38.09375 9.800781 38.039062 9.710938 37.980469 9.632812 C 37.9375 9.570312 37.800781 9.363281 37.742188 9.199219 C 37.332031 8.09375 37.789062 5.972656 38.238281 4.835938 C 38.289062 4.707031 38.355469 4.539062 38.421875 4.398438 C 38.507812 4.222656 38.582031 4.019531 38.652344 3.914062 C 38.695312 3.84375 38.753906 3.796875 38.800781 3.726562 C 38.859375 3.644531 38.921875 3.566406 38.980469 3.496094 C 39.148438 3.300781 39.335938 3.164062 39.5625 2.992188 C 40.308594 2.425781 41.660156 1.984375 43.285156 2.15625 C 43.898438 2.21875 44.820312 2.441406 45.273438 3.078125 C 45.394531 3.246094 45.453125 3.585938 45.523438 3.832031 Z M 45.523438 3.832031 "/>
<path style=" stroke:none;fill-rule:evenodd;fill:rgb(10.196078%,9.803922%,9.411765%);fill-opacity:1;" d="M 35.648438 2.230469 L 37.738281 2.21875 C 37.738281 2.21875 36.574219 7.808594 35.980469 10.535156 L 33.582031 10.535156 C 31.902344 10.535156 30.410156 10.742188 29.773438 9.527344 C 29.15625 8.34375 29.746094 6.402344 30.019531 5.082031 C 30.21875 4.148438 30.628906 2.238281 30.628906 2.238281 L 32.789062 2.21875 C 32.789062 2.21875 32.179688 5.191406 31.925781 6.675781 C 31.835938 7.207031 31.648438 7.707031 31.84375 8.101562 C 32.027344 8.476562 32.289062 8.503906 33.085938 8.519531 C 33.335938 8.527344 34.160156 8.519531 34.160156 8.519531 L 35.648438 2.230469 "/>
<path style=" stroke:none;fill-rule:evenodd;fill:rgb(10.196078%,9.803922%,9.411765%);fill-opacity:1;" d="M 25.882812 6.257812 C 26.101562 5.46875 26.417969 4.617188 26.378906 3.910156 C 26.335938 3.152344 25.707031 2.460938 25.304688 2.316406 C 24.082031 1.878906 22.941406 2.488281 22.488281 2.984375 C 21.902344 3.628906 21.703125 4.382812 21.496094 5.417969 C 21.339844 6.1875 21.214844 7 21.496094 7.597656 C 21.992188 8.660156 23.546875 8.425781 25.21875 8.4375 C 25.46875 7.761719 25.675781 7.003906 25.882812 6.257812 Z M 28.78125 3.152344 C 29.019531 4.910156 28.105469 6.847656 27.472656 8.535156 C 28.117188 8.59375 28.679688 8.523438 28.71875 8.574219 C 28.761719 8.636719 28.289062 10.585938 28.125 10.589844 C 27.613281 10.601562 25.925781 10.617188 25.21875 10.617188 C 22.921875 10.617188 20.769531 10.769531 19.675781 9.609375 C 19.230469 9.140625 18.921875 8.332031 18.847656 7.765625 C 18.722656 6.820312 18.878906 5.773438 19.09375 4.914062 C 19.292969 4.136719 19.542969 3.40625 19.921875 2.734375 C 20.886719 1.027344 22.570312 -0.242188 25.386719 0.0507812 C 25.933594 0.109375 26.71875 0.351562 27.207031 0.636719 C 27.242188 0.660156 27.359375 0.753906 27.386719 0.769531 C 28.050781 1.199219 28.652344 2.214844 28.78125 3.152344 Z M 28.78125 3.152344 "/>
<path style=" stroke:none;fill-rule:evenodd;fill:rgb(10.196078%,9.803922%,9.411765%);fill-opacity:1;" d="M 18.609375 2.242188 C 18.46875 2.882812 18.332031 3.609375 18.183594 4.246094 L 15.867188 4.246094 C 16.046875 3.542969 16.183594 2.84375 16.363281 2.230469 C 17.105469 2.230469 17.792969 2.242188 18.609375 2.242188 "/>
<path style=" stroke:none;fill-rule:evenodd;fill:rgb(10.196078%,9.803922%,9.411765%);fill-opacity:1;" d="M 15.785156 4.832031 L 18.019531 4.832031 C 17.726562 6.46875 17.148438 9.113281 16.695312 10.953125 C 16.410156 12.105469 16.222656 12.945312 15.453125 13.550781 C 15.382812 13.605469 15.34375 13.582031 15.289062 13.636719 C 15.144531 13.773438 14.492188 13.929688 14.128906 13.972656 C 13.539062 14.035156 12.871094 13.980469 12.148438 13.964844 C 12.335938 13.261719 12.550781 12.421875 12.722656 11.789062 C 14.488281 12.007812 14.53125 10.316406 14.875 8.6875 C 15.070312 7.746094 15.671875 5.207031 15.785156 4.832031 "/>
<path style=" stroke:none;fill-rule:evenodd;fill:rgb(12.941176%,37.647059%,60.784314%);fill-opacity:1;" d="M 10.570312 9.109375 L 10.519531 9.234375 C 9.703125 10.84375 8.257812 11.832031 6.195312 11.875 C 5.230469 11.894531 4.3125 11.644531 3.710938 11.371094 C 2.417969 10.78125 1.328125 9.6875 0.734375 8.519531 C -0.121094 6.847656 -0.273438 4.515625 1.5 2.777344 C 1.527344 2.777344 1.285156 3.152344 1.3125 3.152344 L 1.261719 3.316406 C -0.015625 7.371094 3.925781 10.847656 7.753906 10.449219 C 8.675781 10.355469 9.847656 9.84375 10.570312 9.109375 "/>
<path style=" stroke:none;fill-rule:evenodd;fill:rgb(12.941176%,37.647059%,60.784314%);fill-opacity:1;" d="M 8.25 7.429688 C 9.214844 7.4375 10.222656 6.980469 10.816406 6.339844 C 10.296875 7.679688 8.785156 8.542969 6.761719 8.269531 C 5.066406 8.039062 3.449219 6.3125 3.285156 4.578125 C 3.164062 3.320312 3.597656 2.566406 4.3125 1.65625 C 4.0625 2.132812 3.96875 2.5 3.945312 2.734375 C 3.675781 5.460938 6.097656 7.417969 8.25 7.429688 "/>
<path style=" stroke:none;fill-rule:evenodd;fill:rgb(12.941176%,37.647059%,60.784314%);fill-opacity:1;" d="M 10.71875 4.042969 C 10.570312 4.394531 9.707031 5.050781 9.328125 5.132812 C 7.820312 5.457031 6.851562 4.734375 6.347656 3.910156 C 6.273438 3.785156 6.132812 3.449219 6.109375 3.363281 C 5.910156 2.6875 6.003906 1.664062 6.585938 1.136719 C 6.410156 1.640625 6.386719 2.222656 6.476562 2.605469 C 6.535156 2.832031 6.707031 3.234375 6.878906 3.488281 C 7.1875 3.945312 7.386719 4.058594 7.789062 4.300781 C 7.96875 4.410156 8.160156 4.5 8.246094 4.523438 C 8.625 4.636719 9.425781 4.9375 10.71875 4.042969 "/>
</g>
</svg>
