<?xml version="1.0" encoding="UTF-8"?>
<svg xmlns="http://www.w3.org/2000/svg" xmlns:xlink="http://www.w3.org/1999/xlink" width="60pt" height="45pt" viewBox="0 0 60 45" version="1.1">
<g id="surface1">
<path style=" stroke:none;fill-rule:nonzero;fill:rgb(80.392157%,40.392157%,60%);fill-opacity:1;" d="M 51.628906 25.902344 C 49.539062 25.914062 47.726562 26.414062 46.207031 27.160156 C 45.648438 26.054688 45.09375 25.070312 44.996094 24.351562 C 44.886719 23.507812 44.753906 22.996094 44.886719 21.988281 C 45.015625 20.984375 45.605469 19.550781 45.59375 19.441406 C 45.585938 19.332031 45.464844 18.820312 44.261719 18.808594 C 43.058594 18.796875 42.023438 19.039062 41.902344 19.355469 C 41.78125 19.671875 41.550781 20.394531 41.398438 21.136719 C 41.191406 22.230469 38.996094 26.132812 37.738281 28.175781 C 37.332031 27.378906 36.984375 26.675781 36.90625 26.121094 C 36.796875 25.277344 36.667969 24.765625 36.796875 23.757812 C 36.929688 22.753906 37.519531 21.324219 37.507812 21.214844 C 37.496094 21.105469 37.378906 20.589844 36.175781 20.578125 C 34.972656 20.566406 33.933594 20.808594 33.8125 21.125 C 33.695312 21.441406 33.5625 22.1875 33.3125 22.90625 C 33.058594 23.628906 30.140625 30.140625 29.378906 31.824219 C 28.984375 32.6875 28.644531 33.378906 28.40625 33.847656 C 28.40625 33.847656 28.394531 33.878906 28.359375 33.933594 C 28.152344 34.339844 28.03125 34.558594 28.03125 34.558594 C 28.03125 34.558594 28.03125 34.558594 28.03125 34.566406 C 27.867188 34.863281 27.695312 35.136719 27.605469 35.136719 C 27.539062 35.136719 27.421875 34.351562 27.628906 33.277344 C 28.066406 31.015625 29.105469 27.496094 29.09375 27.378906 C 29.09375 27.3125 29.289062 26.699219 28.414062 26.382812 C 27.5625 26.066406 27.257812 26.589844 27.179688 26.589844 C 27.105469 26.589844 27.050781 26.777344 27.050781 26.777344 C 27.050781 26.777344 28 22.820312 25.234375 22.820312 C 23.507812 22.820312 21.125 24.710938 19.945312 26.414062 C 19.203125 26.820312 17.617188 27.683594 15.921875 28.613281 C 15.277344 28.972656 14.613281 29.332031 13.988281 29.671875 C 13.945312 29.628906 13.902344 29.574219 13.859375 29.53125 C 10.511719 25.957031 4.328125 23.433594 4.589844 18.632812 C 4.6875 16.886719 5.289062 12.296875 16.46875 6.722656 C 25.671875 2.1875 32.996094 3.441406 34.261719 6.230469 C 36.078125 10.207031 30.339844 17.59375 20.832031 18.667969 C 17.203125 19.070312 15.300781 17.671875 14.820312 17.148438 C 14.316406 16.601562 14.242188 16.566406 14.054688 16.675781 C 13.75 16.839844 13.945312 17.332031 14.054688 17.617188 C 14.339844 18.359375 15.507812 19.671875 17.488281 20.316406 C 19.234375 20.886719 23.488281 21.203125 28.632812 19.214844 C 34.394531 16.984375 38.894531 10.785156 37.574219 5.59375 C 36.25 0.328125 27.507812 -1.410156 19.234375 1.53125 C 14.316406 3.277344 8.984375 6.03125 5.148438 9.617188 C 0.589844 13.878906 -0.132812 17.585938 0.164062 19.136719 C 1.222656 24.644531 8.820312 28.230469 11.859375 30.886719 C 11.703125 30.972656 11.5625 31.050781 11.441406 31.113281 C 9.921875 31.867188 4.132812 34.894531 2.6875 38.097656 C 1.050781 41.726562 2.949219 44.328125 4.207031 44.675781 C 8.109375 45.757812 12.121094 43.8125 14.273438 40.601562 C 16.425781 37.386719 16.164062 33.214844 15.167969 31.300781 C 15.160156 31.277344 15.148438 31.257812 15.125 31.234375 C 15.519531 31.003906 15.921875 30.765625 16.316406 30.535156 C 17.09375 30.078125 17.859375 29.648438 18.511719 29.300781 C 18.140625 30.316406 17.867188 31.53125 17.738281 33.277344 C 17.574219 35.332031 18.414062 38 19.519531 39.050781 C 20.011719 39.507812 20.589844 39.519531 20.960938 39.519531 C 22.25 39.519531 22.832031 38.449219 23.476562 37.179688 C 24.261719 35.628906 24.972656 33.824219 24.972656 33.824219 C 24.972656 33.824219 24.085938 38.699219 26.492188 38.699219 C 27.367188 38.699219 28.25 37.5625 28.644531 36.984375 L 28.644531 36.996094 C 28.644531 36.996094 28.667969 36.960938 28.710938 36.886719 C 28.796875 36.742188 28.851562 36.65625 28.851562 36.65625 L 28.851562 36.632812 C 29.203125 36.023438 29.988281 34.632812 31.160156 32.328125 C 32.667969 29.355469 34.121094 25.640625 34.121094 25.640625 C 34.121094 25.640625 34.25 26.546875 34.699219 28.054688 C 34.960938 28.941406 35.507812 29.914062 35.945312 30.851562 C 35.59375 31.34375 35.378906 31.617188 35.378906 31.617188 C 35.378906 31.617188 35.378906 31.617188 35.386719 31.628906 C 35.105469 32 34.796875 32.40625 34.460938 32.796875 C 33.269531 34.21875 31.847656 35.847656 31.648438 36.316406 C 31.421875 36.875 31.476562 37.277344 31.914062 37.605469 C 32.230469 37.847656 32.796875 37.878906 33.378906 37.847656 C 34.449219 37.769531 35.203125 37.507812 35.574219 37.34375 C 36.152344 37.136719 36.832031 36.820312 37.464844 36.351562 C 38.632812 35.488281 39.34375 34.25 39.277344 32.621094 C 39.246094 31.726562 38.949219 30.832031 38.589844 29.988281 C 38.699219 29.835938 38.796875 29.683594 38.90625 29.53125 C 40.753906 26.832031 42.1875 23.867188 42.1875 23.867188 C 42.1875 23.867188 42.316406 24.777344 42.765625 26.285156 C 42.984375 27.050781 43.433594 27.878906 43.824219 28.6875 C 42.085938 30.097656 41.015625 31.738281 40.632812 32.808594 C 39.945312 34.796875 40.480469 35.695312 41.496094 35.902344 C 41.957031 36 42.613281 35.78125 43.09375 35.574219 C 43.703125 35.378906 44.425781 35.039062 45.113281 34.535156 C 46.285156 33.671875 47.410156 32.46875 47.34375 30.839844 C 47.3125 30.097656 47.113281 29.367188 46.839844 28.65625 C 48.316406 28.042969 50.21875 27.703125 52.644531 27.988281 C 57.847656 28.601562 58.875 31.847656 58.675781 33.214844 C 58.480469 34.578125 57.386719 35.324219 57.027344 35.550781 C 56.667969 35.78125 56.546875 35.859375 56.578125 36.023438 C 56.621094 36.261719 56.796875 36.25 57.105469 36.207031 C 57.53125 36.132812 59.835938 35.105469 59.933594 32.589844 C 60.097656 29.378906 57.039062 25.867188 51.628906 25.902344 Z M 11.496094 39.433594 C 9.769531 41.3125 7.367188 42.023438 6.328125 41.421875 C 5.214844 40.777344 5.648438 38 7.769531 36.011719 C 9.058594 34.796875 10.722656 33.671875 11.824219 32.984375 C 12.078125 32.832031 12.449219 32.613281 12.894531 32.339844 C 12.972656 32.296875 13.015625 32.273438 13.015625 32.273438 C 13.105469 32.21875 13.191406 32.164062 13.277344 32.109375 C 14.054688 34.949219 13.3125 37.453125 11.496094 39.433594 Z M 24.066406 30.886719 C 23.464844 32.351562 22.207031 36.097656 21.441406 35.890625 C 20.785156 35.714844 20.382812 32.875 21.3125 30.066406 C 21.78125 28.65625 22.777344 26.972656 23.355469 26.316406 C 24.296875 25.269531 25.332031 24.917969 25.585938 25.34375 C 25.902344 25.902344 24.4375 29.96875 24.066406 30.886719 Z M 34.4375 35.847656 C 34.1875 35.976562 33.945312 36.066406 33.835938 36 C 33.757812 35.957031 33.945312 35.78125 33.945312 35.78125 C 33.945312 35.78125 35.246094 34.382812 35.757812 33.75 C 36.054688 33.378906 36.40625 32.941406 36.777344 32.449219 L 36.777344 32.589844 C 36.777344 34.261719 35.160156 35.386719 34.4375 35.847656 Z M 42.4375 34.023438 C 42.25 33.890625 42.285156 33.453125 42.90625 32.085938 C 43.148438 31.550781 43.714844 30.65625 44.6875 29.792969 C 44.796875 30.140625 44.875 30.480469 44.863281 30.796875 C 44.851562 32.90625 43.34375 33.695312 42.4375 34.023438 Z M 42.4375 34.023438 "/>
</g>
</svg>
