<?xml version="1.0" encoding="UTF-8"?>
<svg xmlns="http://www.w3.org/2000/svg" xmlns:xlink="http://www.w3.org/1999/xlink" width="60pt" height="59pt" viewBox="0 0 60 59" version="1.1">
<g id="surface1">
<path style=" stroke:none;fill-rule:nonzero;fill:rgb(27.45098%,26.27451%,25.882353%);fill-opacity:1;" d="M 4.246094 29.5 C 4.246094 39.515625 10.144531 48.175781 18.695312 52.277344 L 6.46875 19.199219 C 5.042969 22.347656 4.246094 25.832031 4.246094 29.5 Z M 47.191406 28.222656 C 47.191406 25.09375 46.050781 22.929688 45.074219 21.242188 C 43.777344 19.160156 42.558594 17.394531 42.558594 15.308594 C 42.558594 12.980469 44.347656 10.816406 46.863281 10.816406 C 46.976562 10.816406 47.085938 10.832031 47.195312 10.835938 C 42.632812 6.710938 36.558594 4.195312 29.882812 4.195312 C 20.929688 4.195312 13.046875 8.730469 8.464844 15.601562 C 9.066406 15.617188 9.632812 15.628906 10.113281 15.628906 C 12.796875 15.628906 16.945312 15.308594 16.945312 15.308594 C 18.328125 15.230469 18.492188 17.234375 17.109375 17.394531 C 17.109375 17.394531 15.722656 17.554688 14.175781 17.636719 L 23.511719 45.046875 L 29.121094 28.4375 L 25.128906 17.632812 C 23.746094 17.554688 22.441406 17.394531 22.441406 17.394531 C 21.058594 17.3125 21.21875 15.226562 22.601562 15.308594 C 22.601562 15.308594 26.835938 15.628906 29.355469 15.628906 C 32.035156 15.628906 36.1875 15.308594 36.1875 15.308594 C 37.570312 15.226562 37.730469 17.230469 36.351562 17.394531 C 36.351562 17.394531 34.960938 17.554688 33.417969 17.632812 L 42.679688 44.839844 L 45.238281 36.402344 C 46.347656 32.902344 47.191406 30.390625 47.191406 28.222656 Z M 30.332031 31.714844 L 22.640625 53.777344 C 24.9375 54.445312 27.367188 54.808594 29.882812 54.808594 C 32.871094 54.808594 35.730469 54.300781 38.398438 53.375 C 38.328125 53.265625 38.265625 53.152344 38.214844 53.027344 Z M 52.378906 17.359375 C 52.488281 18.164062 52.550781 19.03125 52.550781 19.960938 C 52.550781 22.527344 52.066406 25.414062 50.601562 29.023438 L 42.769531 51.375 C 50.394531 46.988281 55.519531 38.835938 55.519531 29.5 C 55.519531 25.101562 54.382812 20.964844 52.378906 17.359375 Z M 29.882812 0 C 13.40625 0 0 13.234375 0 29.5 C 0 45.769531 13.40625 59 29.882812 59 C 46.359375 59 59.769531 45.769531 59.769531 29.5 C 59.769531 13.234375 46.359375 0 29.882812 0 Z M 29.882812 57.648438 C 14.160156 57.648438 1.371094 45.023438 1.371094 29.5 C 1.371094 13.980469 14.160156 1.351562 29.882812 1.351562 C 45.605469 1.351562 58.394531 13.980469 58.394531 29.5 C 58.394531 45.023438 45.605469 57.648438 29.882812 57.648438 Z M 29.882812 57.648438 "/>
</g>
</svg>
